<svg width="40" height="40" viewBox="0 0 40 40" fill="none" xmlns="http://www.w3.org/2000/svg">
<path fill-rule="evenodd" clip-rule="evenodd" d="M32.8144 1.08213C32.6898 0.582817 32.3058 0.189253 31.8098 0.0518695C31.3138 -0.0855145 30.7824 0.0545229 30.4184 0.418451L24.7041 6.13274C24.3493 6.48757 24.2066 7.00254 24.3284 7.48937L25.3592 11.613C25.3454 11.6261 25.3318 11.6393 25.3183 11.6529L18.4835 18.4876C17.6467 19.3245 17.6467 20.6812 18.4835 21.5181C19.3204 22.3549 20.6772 22.3549 21.514 21.5181L28.3487 14.6833C28.3626 14.6695 28.3762 14.6555 28.3896 14.6414L32.5106 15.6717C32.9975 15.7934 33.5124 15.6507 33.8672 15.2959L39.5815 9.5816C39.9455 9.21769 40.0855 8.68611 39.9481 8.19011C39.8106 7.69414 39.4172 7.31037 38.9178 7.18554L34.0352 5.96486L32.8144 1.08213ZM20.9062 2.16597C20.9882 3.3466 20.0976 4.37017 18.917 4.4522C15.9323 4.65954 13.0699 5.71931 10.6698 7.5056C8.26967 9.29189 6.43278 11.7296 5.37733 14.5291C4.32187 17.3287 4.09224 20.3723 4.7157 23.2986C5.33916 26.2248 6.7895 28.9106 8.89441 31.0366C10.9994 33.1629 13.6704 34.64 16.5902 35.2929C19.51 35.9457 22.5558 35.7469 25.3658 34.7194C28.1758 33.6923 30.6318 31.88 32.4421 29.498C34.2524 27.1159 35.3409 24.2642 35.5784 21.2818C35.6721 20.102 36.7046 19.2218 37.8844 19.3156C39.0641 19.4095 39.9444 20.442 39.8504 21.6217C39.5481 25.4221 38.1612 29.0557 35.8544 32.0911C33.5475 35.1263 30.4178 37.4357 26.8373 38.7446C23.2566 40.0537 19.3755 40.3071 15.655 39.4754C11.9345 38.6434 8.53096 36.7611 5.84878 34.052C3.16658 31.3426 1.3185 27.9203 0.524064 24.1916C-0.270369 20.4629 0.0222459 16.5846 1.36714 13.0173C2.71204 9.45 5.0527 6.34374 8.11101 4.06757C11.1694 1.79141 14.8168 0.441 18.62 0.176782C19.8006 0.0947615 20.8242 0.985354 20.9062 2.16597ZM18.987 11.5942C19.4184 12.6962 18.8748 13.9393 17.7727 14.3707C16.835 14.7379 16.0035 15.3329 15.3535 16.1022C14.7036 16.8714 14.2556 17.7905 14.0501 18.7764C13.8446 19.7623 13.8881 20.7838 14.1767 21.7487C14.4652 22.7135 14.9897 23.5912 15.7027 24.3024C16.4158 25.0136 17.2948 25.5358 18.2604 25.8219C19.226 26.1079 20.2476 26.1488 21.233 25.9408C22.2183 25.7328 23.1363 25.2824 23.9038 24.6305C24.6714 23.9785 25.2643 23.1455 25.629 22.2068C26.0576 21.1037 27.2993 20.5569 28.4024 20.9855C29.5055 21.4141 30.0524 22.6557 29.6238 23.7589C29.0012 25.3616 27.9888 26.7838 26.6783 27.8969C25.3678 29.01 23.8005 29.7789 22.1182 30.134C20.4359 30.4891 18.6916 30.4194 17.043 29.9311C15.3944 29.4426 13.8936 28.551 12.6762 27.3367C11.4588 26.1225 10.5633 24.6239 10.0706 22.9766C9.57798 21.3293 9.5037 19.5852 9.85453 17.9019C10.2054 16.2187 10.9702 14.6495 12.08 13.3361C13.1897 12.0228 14.6093 11.0067 16.2104 10.3799C17.3124 9.94851 18.5555 10.4921 18.987 11.5942Z" fill="#3E71DA"/>
</svg>
