<svg width="44" height="44" viewBox="0 0 44 44" fill="none" xmlns="http://www.w3.org/2000/svg">
<path d="M7.86 7.86L16.34 16.34M27.66 27.66L36.14 36.14M36.14 7.86L27.66 16.34L34.72 9.28M7.86 36.14L16.34 27.66M42 22C42 33.0457 33.0457 42 22 42C10.9543 42 2 33.0457 2 22C2 10.9543 10.9543 2 22 2C33.0457 2 42 10.9543 42 22ZM30 22C30 26.4183 26.4183 30 22 30C17.5817 30 14 26.4183 14 22C14 17.5817 17.5817 14 22 14C26.4183 14 30 17.5817 30 22Z" stroke="#1E1E1E" stroke-width="4" stroke-linecap="round" stroke-linejoin="round"/>
</svg>
