<svg width="44" height="44" viewBox="0 0 44 44" fill="none" xmlns="http://www.w3.org/2000/svg">
<g clip-path="url(#clip0_65_504)">
<path fill-rule="evenodd" clip-rule="evenodd" d="M4.94441 4.94441C5.09177 4.79707 5.29163 4.71429 5.5 4.71429H10.2143C11.5161 4.71429 12.5714 3.65895 12.5714 2.35714C12.5714 1.05533 11.5161 0 10.2143 0H5.5C4.04131 0 2.64236 0.579464 1.61091 1.61091C0.579464 2.64236 0 4.04131 0 5.5V10.2143C0 11.5161 1.05533 12.5714 2.35714 12.5714C3.65895 12.5714 4.71429 11.5161 4.71429 10.2143V5.5C4.71429 5.29163 4.79707 5.09177 4.94441 4.94441ZM44 33.7857C44 32.4839 42.9446 31.4286 41.6429 31.4286C40.3411 31.4286 39.2857 32.4839 39.2857 33.7857V38.5C39.2857 38.7084 39.2031 38.9083 39.0557 39.0557C38.9083 39.2031 38.7084 39.2857 38.5 39.2857H33.7857C32.4839 39.2857 31.4286 40.3411 31.4286 41.6429C31.4286 42.9446 32.4839 44 33.7857 44H38.5C39.9586 44 41.3575 43.4205 42.389 42.389C43.4205 41.3575 44 39.9586 44 38.5V33.7857ZM2.35714 31.4286C3.65895 31.4286 4.71429 32.4839 4.71429 33.7857V38.5C4.71429 38.7084 4.79707 38.9083 4.94441 39.0557C5.09177 39.2031 5.29163 39.2857 5.5 39.2857H10.2143C11.5161 39.2857 12.5714 40.3411 12.5714 41.6429C12.5714 42.9446 11.5161 44 10.2143 44H5.5C4.04131 44 2.64236 43.4205 1.61091 42.389C0.579464 41.3575 0 39.9586 0 38.5V33.7857C0 32.4839 1.05533 31.4286 2.35714 31.4286ZM33.7857 0C32.4839 0 31.4286 1.05533 31.4286 2.35714C31.4286 3.65895 32.4839 4.71429 33.7857 4.71429H38.5C38.7084 4.71429 38.9083 4.79707 39.0557 4.94441C39.2031 5.09177 39.2857 5.29163 39.2857 5.5V10.2143C39.2857 11.5161 40.3411 12.5714 41.6429 12.5714C42.9446 12.5714 44 11.5161 44 10.2143V5.5C44 4.04131 43.4205 2.64236 42.389 1.61091C41.3575 0.579464 39.9586 0 38.5 0H33.7857ZM21.997 24.4403C16.0286 24.4403 10.939 28.2034 8.97154 33.4865C8.62155 34.4262 9.37049 35.3578 10.3734 35.3578H33.6207C34.6236 35.3578 35.3725 34.4262 35.0224 33.4865C33.055 28.2034 27.9656 24.4403 21.997 24.4403ZM28.9397 14.0189C28.9397 17.8559 25.8292 20.9664 21.9922 20.9664C18.1552 20.9664 15.0448 17.8559 15.0448 14.0189C15.0448 10.1819 18.1552 7.07143 21.9922 7.07143C25.8292 7.07143 28.9397 10.1819 28.9397 14.0189Z" fill="black"/>
</g>
<defs>
<clipPath id="clip0_65_504">
<rect width="44" height="44" fill="white"/>
</clipPath>
</defs>
</svg>
